<svg width="16" height="16" viewBox="0 0 16 16" fill="none" xmlns="http://www.w3.org/2000/svg">
<path d="M7.96666 12.0026C8.2 12.0026 8.39733 11.9219 8.55866 11.7606C8.72 11.5993 8.80044 11.4022 8.8 11.1693C8.79955 10.9364 8.71911 10.7391 8.55866 10.5773C8.39822 10.4155 8.20088 10.3351 7.96666 10.3359C7.73244 10.3368 7.53533 10.4175 7.37533 10.5779C7.21533 10.7384 7.13466 10.9355 7.13333 11.1693C7.132 11.4031 7.21266 11.6004 7.37533 11.7613C7.538 11.9222 7.73511 12.0026 7.96666 12.0026ZM7.36666 9.43594H8.6C8.6 9.06927 8.64177 8.78039 8.72533 8.56927C8.80889 8.35816 9.04488 8.06927 9.43333 7.70261C9.72222 7.41372 9.95 7.13861 10.1167 6.87727C10.2833 6.61594 10.3667 6.30216 10.3667 5.93594C10.3667 5.31372 10.1389 4.83594 9.68333 4.50261C9.22777 4.16927 8.68888 4.00261 8.06666 4.00261C7.43333 4.00261 6.91955 4.16927 6.52533 4.50261C6.13111 4.83594 5.856 5.23594 5.7 5.70261L6.8 6.13594C6.85555 5.93594 6.98066 5.71927 7.17533 5.48594C7.37 5.25261 7.66711 5.13594 8.06666 5.13594C8.42222 5.13594 8.68888 5.23327 8.86666 5.42794C9.04444 5.62261 9.13333 5.83639 9.13333 6.06927C9.13333 6.2915 9.06666 6.49994 8.93333 6.69461C8.8 6.88927 8.63333 7.06972 8.43333 7.23594C7.94444 7.66927 7.64444 7.99705 7.53333 8.21927C7.42222 8.4415 7.36666 8.84705 7.36666 9.43594ZM8 14.6693C7.07777 14.6693 6.21111 14.4944 5.4 14.1446C4.58889 13.7948 3.88333 13.3197 3.28333 12.7193C2.68333 12.1188 2.20844 11.4133 1.85866 10.6026C1.50888 9.79194 1.33377 8.92527 1.33333 8.00261C1.33288 7.07994 1.508 6.21327 1.85866 5.40261C2.20933 4.59194 2.68422 3.88639 3.28333 3.28594C3.88244 2.6855 4.588 2.21061 5.4 1.86127C6.212 1.51194 7.07866 1.33683 8 1.33594C8.92133 1.33505 9.788 1.51016 10.6 1.86127C11.412 2.21239 12.1176 2.68727 12.7167 3.28594C13.3158 3.88461 13.7909 4.59016 14.142 5.40261C14.4931 6.21505 14.668 7.08172 14.6667 8.00261C14.6653 8.9235 14.4902 9.79016 14.1413 10.6026C13.7924 11.4151 13.3176 12.1206 12.7167 12.7193C12.1158 13.3179 11.4102 13.7931 10.6 14.1446C9.78977 14.4962 8.92311 14.6711 8 14.6693Z" fill="#6D7176"/>
</svg>
