<svg width="24" height="24" viewBox="0 0 24 24" fill="none" xmlns="http://www.w3.org/2000/svg">
<mask id="mask0_7213_142176" style="mask-type:luminance" maskUnits="userSpaceOnUse" x="1" y="3" width="22" height="19">
<path d="M12 20H3.5C3.10218 20 2.72064 19.842 2.43934 19.5607C2.15804 19.2794 2 18.8978 2 18.5V5.5C2 5.10218 2.15804 4.72064 2.43934 4.43934C2.72064 4.15804 3.10218 4 3.5 4H20.5C20.8978 4 21.2794 4.15804 21.5607 4.43934C21.842 4.72064 22 5.10218 22 5.5V11.5295" stroke="white" stroke-width="2" stroke-linecap="round" stroke-linejoin="round"/>
<path d="M2 5.5C2 5.10218 2.15804 4.72064 2.43934 4.43934C2.72064 4.15804 3.10218 4 3.5 4H20.5C20.8978 4 21.2794 4.15804 21.5607 4.43934C21.842 4.72064 22 5.10218 22 5.5V10H2V5.5Z" fill="white" stroke="white" stroke-width="2"/>
<path d="M4 7C4 6.44772 4.44772 6 5 6C5.55228 6 6 6.44772 6 7C6 7.55228 5.55228 8 5 8C4.44772 8 4 7.55228 4 7Z" fill="black"/>
<path d="M7 7C7 6.44772 7.44772 6 8 6C8.55228 6 9 6.44772 9 7C9 7.55228 8.55228 8 8 8C7.44772 8 7 7.55228 7 7Z" fill="black"/>
<path d="M18.5 18.5C19.3284 18.5 20 17.8284 20 17C20 16.1716 19.3284 15.5 18.5 15.5C17.6716 15.5 17 16.1716 17 17C17 17.8284 17.6716 18.5 18.5 18.5Z" stroke="white" stroke-width="2"/>
<path d="M18.5002 20.5V18.5M18.5002 15.5V13.5M15.4692 18.75L17.2012 17.75M19.7992 16.25L21.5312 15.25M15.4692 15.25L17.2012 16.25M19.7992 17.75L21.5312 18.75" stroke="white" stroke-width="2" stroke-linecap="round" stroke-linejoin="round"/>
</mask>
<g mask="url(#mask0_7213_142176)">
<path d="M0 0H24V24H0V0Z" fill="#6D7176"/>
</g>
</svg>
